#!OML:ASF H:\Not Pregnant\Project 1\Capture day 1\Session 1\non-pregnant.ASF
:FULLY-SPECIFIED
:DEGREES
266
root -4.91238 15.8245 37.0165 182.182 -68.9792 -165.655
lowerback -0.748539 2.6171 2.36933
upperback -7.48786 3.39298 1.0359
thorax -7.31358 1.45271 -0.41109
lowerneck 7.05985 -3.7278 -27.1696
upperneck 4.11152 -12.6903 45.7573
head 5.64163 -8.5636 25.6834
rclavicle -9.65872e-015 -3.91606e-014
rhumerus -34.5901 14.856 -89.5524
rradius 67.0919
rwrist -21.6886
rhand -41.6364 -29.6694
rfingers 7.12502
rthumb -14.5448 -59.1395
lclavicle -9.65872e-015 -3.91606e-014
lhumerus -34.2631 -5.42813 79.7159
lradius 44.1082
lwrist 48.7534
lhand -28.3418 -11.2762
lfingers 7.12502
lthumb -1.71603 18.6966
rfemur -28.6053 -17.3132 31.092
rtibia 52.9706
rfoot -18.3103 -2.85296
rtoes -28.2189
lfemur -33.5775 7.41249 -24.3877
ltibia 34.1972
lfoot -16.8301 5.85271
ltoes -8.49553
267
root -4.91507 15.8316 37.0002 181.868 -69.3419 -165.375
lowerback -0.660343 2.53545 2.15755
upperback -7.49003 3.28441 1.08776
thorax -7.38402 1.41423 -0.237918
lowerneck 7.13048 -3.89874 -27.2223
upperneck 3.7117 -12.842 45.7766
head 5.60141 -8.64957 25.6287
rclavicle 2.84763e-014 2.72335e-014
rhumerus -35.0528 15.8848 -90.0138
rradius 67.6868
rwrist -21.5671
rhand -42.1622 -28.4891
rfingers 7.12502
rthumb -15.0514 -57.922
lclavicle 2.84763e-014 2.72335e-014
lhumerus -34.0427 -5.80363 80.7961
lradius 43.6849
lwrist 47.2668
lhand -28.3871 -11.618
lfingers 7.12502
lthumb -1.75976 18.3545
rfemur -29.1066 -17.1855 31.0655
rtibia 52.4155
rfoot -18.8581 -3.38149
rtoes -27.8133
lfemur -33.438 7.31124 -24.2917
ltibia 34.0382
lfoot -16.8082 5.62559
ltoes -8.37469
268
root -4.91705 15.8377 36.9831 181.518 -69.707 -165.07
lowerback -0.552959 2.44951 1.94356
upperback -7.49605 3.17037 1.14163
thorax -7.46931 1.37325 -0.0614977
lowerneck 7.22012 -4.05935 -27.2717
upperneck 3.30251 -12.9769 45.7969
head 5.54486 -8.72839 25.5759
rclavicle -5.17694e-015 -1.49089e-015
rhumerus -35.5338 16.8647 -90.4771
rradius 68.2064
rwrist -21.2741
rhand -42.5325 -27.2553
rfingers 7.12502
rthumb -15.4081 -56.6611
lclavicle -5.17694e-015 -1.49089e-015
lhumerus -33.8301 -6.04451 81.8442
lradius 43.2207
lwrist 45.605
lhand -28.5148 -12.0378
lfingers 7.12502
lthumb -1.8831 17.9336
rfemur -29.5853 -17.0024 31.0167
rtibia 51.8693
rfoot -19.3777 -3.83882
rtoes -27.4133
lfemur -33.3026 7.20492 -24.1863
ltibia 33.9078
lfoot -16.7782 5.41693
ltoes -8.44896
269
root -4.91892 15.8419 36.969 181.162 -70.1384 -164.755
lowerback -0.437959 2.34448 1.77656
upperback -7.51226 3.03089 1.17703
thorax -7.56592 1.31585 0.0711914
lowerneck 7.34171 -4.20866 -27.3051
upperneck 2.87964 -13.0974 45.8251
head 5.46882 -8.80358 25.528
rclavicle 6.06992e-015 -1.11319e-014
rhumerus -36.0252 17.7699 -90.9336
rradius 68.6388
rwrist -20.7606
rhand -42.7346 -26.0045
rfingers 7.12502
rthumb -15.6028 -55.3952
lclavicle 6.06992e-015 -1.11319e-014
lhumerus -33.6293 -6.19612 82.8705
lradius 42.7237
lwrist 43.8094
lhand -28.7827 -12.5116
lfingers 7.12502
lthumb -2.14185 17.4574
rfemur -30.0787 -16.8421 30.9284
rtibia 51.3445
rfoot -19.8685 -4.18007
rtoes -27.0473
lfemur -33.1948 7.00308 -24.0927
ltibia 33.8054
lfoot -16.7382 5.24021
ltoes -8.59815
270
root -4.92083 15.8448 36.9559 180.78 -70.5991 -164.409
lowerback -0.331886 2.22665 1.62934
upperback -7.5318 2.87365 1.20785
thorax -7.65901 1.24834 0.19022
lowerneck 7.48719 -4.34292 -27.3274
upperneck 2.44491 -13.1965 45.8617
head 5.373 -8.87117 25.4899
rclavicle 9.53662e-015 -8.15017e-015
rhumerus -36.5196 18.6254 -91.3877
rradius 68.978
rwrist -20.0338
rhand -42.7603 -24.7407
rfingers 7.12502
rthumb -15.6275 -54.1294
lclavicle 9.53662e-015 -8.15017e-015
lhumerus -33.4425 -6.27171 83.884
lradius 42.2052
lwrist 41.9515
lhand -29.2346 -13.0174
lfingers 7.12502
lthumb -2.57826 16.9468
rfemur -30.5708 -16.6663 30.813
rtibia 50.8348
rfoot -20.3296 -4.39569
rtoes -26.7443
lfemur -33.1092 6.7677 -24.0003
ltibia 33.7279
lfoot -16.6923 5.08183
ltoes -8.93719
